HIERARCHY
ROOT hip
{
  OFFSET -0.990681 80.781 173.218
  CHANNELS 6 Xposition Yposition Zposition Zrotation Xrotation Yrotation
  JOINT abdomen
  {
    OFFSET 0 20.6881 -0.73152
    CHANNELS 3 Zrotation Xrotation Yrotation
    JOINT chest
    {
      OFFSET 0 11.7043 -0.48768
      CHANNELS 3 Zrotation Xrotation Yrotation
      JOINT neck
      {
        OFFSET 0 22.1894 -2.19456
        CHANNELS 3 Zrotation Xrotation Yrotation
        JOINT head
        {
          OFFSET -0.24384 7.07133 1.2192
          CHANNELS 3 Zrotation Xrotation Yrotation
          JOINT leftEye
          {
            OFFSET 4.14528 8.04674 8.04672
            CHANNELS 3 Zrotation Xrotation Yrotation
            End Site
            {
              OFFSET 1 0 0
            }
          }
          JOINT rightEye
          {
            OFFSET -3.6576 8.04674 8.04672
            CHANNELS 3 Zrotation Xrotation Yrotation
            End Site
            {
              OFFSET 1 0 0
            }
          }
        }
      }
      JOINT rCollar
      {
        OFFSET -2.68224 19.2634 -4.8768
        CHANNELS 3 Zrotation Xrotation Yrotation
        JOINT rShldr
        {
          OFFSET -8.77824 -1.95073 1.46304
          CHANNELS 3 Zrotation Xrotation Yrotation
          JOINT rForeArm
          {
            OFFSET -28.1742 -1.7115 0.48768
            CHANNELS 3 Zrotation Xrotation Yrotation
            JOINT rHand
            {
              OFFSET -22.5879 0.773209 7.07136
              CHANNELS 3 Zrotation Xrotation Yrotation
              JOINT rThumb1
              {
                OFFSET -1.2192 -0.487915 3.41376
                CHANNELS 3 Zrotation Xrotation Yrotation
                JOINT rThumb2
                {
                  OFFSET -3.37035 -0.52449 3.41376
                  CHANNELS 3 Zrotation Xrotation Yrotation
                  End Site
                  {
                    OFFSET -1.78271 -1.18214 1.43049
                  }
                }
              }
              JOINT rIndex1
              {
                OFFSET -7.75947 0.938293 5.60832
                CHANNELS 3 Zrotation Xrotation Yrotation
                JOINT rIndex2
                {
                  OFFSET -2.54057 -0.884171 1.56538
                  CHANNELS 3 Zrotation Xrotation Yrotation
                  End Site
                  {
                    OFFSET -1.62519 -0.234802 1.16502
                  }
                }
              }
              JOINT rMid1
              {
                OFFSET -8.24714 1.18213 3.41376
                CHANNELS 3 Zrotation Xrotation Yrotation
                JOINT rMid2
                {
                  OFFSET -3.10165 -0.590103 1.0647
                  CHANNELS 3 Zrotation Xrotation Yrotation
                  End Site
                  {
                    OFFSET -2.48547 -0.328903 0.83742
                  }
                }
              }
              JOINT rRing1
              {
                OFFSET -8.82822 0.546677 1.51678
                CHANNELS 3 Zrotation Xrotation Yrotation
                JOINT rRing2
                {
                  OFFSET -2.60934 -0.819778 -0.0198488
                  CHANNELS 3 Zrotation Xrotation Yrotation
                  End Site
                  {
                    OFFSET -2.33842 -0.294052 0.168128
                  }
                }
              }
              JOINT rPinky1
              {
                OFFSET -8.27202 -0.0477905 -0.4584
                CHANNELS 3 Zrotation Xrotation Yrotation
                JOINT rPinky2
                {
                  OFFSET -1.82734 -0.647385 -0.700984
                  CHANNELS 3 Zrotation Xrotation Yrotation
                  End Site
                  {
                    OFFSET -1.69225 -0.51767 -0.607171
                  }
                }
              }
            }
          }
        }
      }
      JOINT lCollar
      {
        OFFSET 2.68224 19.2634 -4.8768
        CHANNELS 3 Zrotation Xrotation Yrotation
        JOINT lShldr
        {
          OFFSET 8.77824 -1.95073 1.46304
          CHANNELS 3 Zrotation Xrotation Yrotation
          JOINT lForeArm
          {
            OFFSET 28.1742 -1.7115 0.48768
            CHANNELS 3 Zrotation Xrotation Yrotation
            JOINT lHand
            {
              OFFSET 22.5879 0.773209 7.07136
              CHANNELS 3 Zrotation Xrotation Yrotation
              JOINT lThumb1
              {
                OFFSET 1.2192 -0.487915 3.41376
                CHANNELS 3 Zrotation Xrotation Yrotation
                JOINT lThumb2
                {
                  OFFSET 3.37035 -0.52449 3.41376
                  CHANNELS 3 Zrotation Xrotation Yrotation
                  End Site
                  {
                    OFFSET 1.78271 -1.18214 1.43049
                  }
                }
              }
              JOINT lIndex1
              {
                OFFSET 7.75947 0.938293 5.60832
                CHANNELS 3 Zrotation Xrotation Yrotation
                JOINT lIndex2
                {
                  OFFSET 2.54057 -0.884171 1.56538
                  CHANNELS 3 Zrotation Xrotation Yrotation
                  End Site
                  {
                    OFFSET 1.62519 -0.234802 1.16502
                  }
                }
              }
              JOINT lMid1
              {
                OFFSET 8.24714 1.18213 3.41376
                CHANNELS 3 Zrotation Xrotation Yrotation
                JOINT lMid2
                {
                  OFFSET 3.10165 -0.590103 1.0647
                  CHANNELS 3 Zrotation Xrotation Yrotation
                  End Site
                  {
                    OFFSET 2.48547 -0.328903 0.83742
                  }
                }
              }
              JOINT lRing1
              {
                OFFSET 8.82822 0.546677 1.51678
                CHANNELS 3 Zrotation Xrotation Yrotation
                JOINT lRing2
                {
                  OFFSET 2.60934 -0.819778 -0.0198488
                  CHANNELS 3 Zrotation Xrotation Yrotation
                  End Site
                  {
                    OFFSET 2.33842 -0.294052 0.168128
                  }
                }
              }
              JOINT lPinky1
              {
                OFFSET 8.27202 -0.0477905 -0.4584
                CHANNELS 3 Zrotation Xrotation Yrotation
                JOINT lPinky2
                {
                  OFFSET 1.82734 -0.647385 -0.700984
                  CHANNELS 3 Zrotation Xrotation Yrotation
                  End Site
                  {
                    OFFSET 1.69225 -0.51767 -0.607171
                  }
                }
              }
            }
          }
        }
      }
    }
  }
  JOINT rButtock
  {
    OFFSET -8.77824 4.35084 1.2192
    CHANNELS 3 Zrotation Xrotation Yrotation
    JOINT rThigh
    {
      OFFSET 0 -1.70687 -2.19456
      CHANNELS 3 Zrotation Xrotation Yrotation
      JOINT rShin
      {
        OFFSET 0 -36.8199 0.73152
        CHANNELS 3 Zrotation Xrotation Yrotation
        JOINT rFoot
        {
          OFFSET 0.73152 -45.1104 -5.12064
          CHANNELS 3 Zrotation Xrotation Yrotation
          End Site
          {
            OFFSET -1.1221 -3.69964 12.103
          }
        }
      }
    }
  }
  JOINT lButtock
  {
    OFFSET 8.77824 4.35084 1.2192
    CHANNELS 3 Zrotation Xrotation Yrotation
    JOINT lThigh
    {
      OFFSET 0 -1.70687 -2.19456
      CHANNELS 3 Zrotation Xrotation Yrotation
      JOINT lShin
      {
        OFFSET 0 -36.8199 0.73152
        CHANNELS 3 Zrotation Xrotation Yrotation
        JOINT lFoot
        {
          OFFSET -0.73152 -45.1104 -5.12064
          CHANNELS 3 Zrotation Xrotation Yrotation
          End Site
          {
            OFFSET 1.1221 -3.69964 12.103
          }
        }
      }
    }
  }
}
MOTION
Frames:	6
Frame Time:	0.00833333
5.57379 84.2276 -89.8049 -4.44228 5.52814 7.20627 7.51683 5.00899 -5.06116 4.10449 -1.34576 -1.16964 -3.74284 0.336917 -1.26812 -0.113423 -0.348789 -1.48556 -0 0 0 -0 0 0 2.75069e-013 -4.45278e-014 -1.308e-013 73.878 -31.5144 -9.20754 -5.25842 -1.72333 9.16375 -0.438607 18.4914 2.69394 -3.14692e-009 -2.55877e-009 8.3918e-010 -5.42339e-009 -4.41735e-009 1.49572e-009 -3.14692e-009 -2.55877e-009 8.39164e-010 7.73091 5.47488 0.417314 -3.14692e-009 -2.55877e-009 8.39183e-010 2.90554 0.965183 0.102902 -3.14691e-009 -2.55877e-009 8.39184e-010 10.2786 0.731801 0.0259123 -3.14692e-009 -2.55877e-009 8.39196e-010 2.22167 -0.733487 -0.20892 2.74887e-013 -4.45291e-014 -1.30949e-013 -83.2974 25.8486 2.5064 11.8287 -5.32923 -21.2787 0.273303 14.7188 -2.11582 -1.86876e-009 -1.7137e-009 -3.27297e-009 -3.26935e-009 -2.9694e-009 -5.63229e-009 -1.86876e-009 -1.71369e-009 -3.27295e-009 -7.73091 5.47488 -0.417314 -1.86875e-009 -1.71369e-009 -3.27296e-009 -2.90554 0.965183 -0.102902 -1.86877e-009 -1.71369e-009 -3.27296e-009 -10.2786 0.731801 -0.0259123 -1.86875e-009 -1.71369e-009 -3.27296e-009 -2.22167 -0.733487 0.20892 -2.03217e-016 0 -3.88251e-019 6.33246 -26.478 -0.814746 -0.0817054 21.192 -0.215759 -1.184 -1.09359 -9.83298 2.03217e-016 0 3.88251e-019 4.81367 -3.28977 -7.34511 0.417251 42.1354 -0.604562 1.47394 12.9623 -6.95099 
5.53253 84.2223 -89.1435 -4.86349 5.27342 7.49962 8.00307 5.05665 -5.04748 3.94388 -1.39834 -1.15204 -3.73426 0.384238 -1.36446 -0.0402431 -0.346535 -1.67884 -0 0 0 -0 0 0 2.52018e-013 -4.94572e-015 -1.21958e-013 74.3422 -31.0593 -8.77289 -5.27835 -1.73172 9.19913 -0.417976 18.087 2.63057 -2.84855e-009 -2.17425e-009 3.72835e-011 -4.91882e-009 -3.75596e-009 1.05711e-010 -2.84855e-009 -2.17425e-009 3.72682e-011 7.73091 5.47488 0.417314 -2.84855e-009 -2.17425e-009 3.7285e-011 2.90554 0.965183 0.102902 -2.84854e-009 -2.17425e-009 3.72867e-011 10.2786 0.731801 0.0259123 -2.84855e-009 -2.17425e-009 3.72991e-011 2.22167 -0.733487 -0.20892 2.51904e-013 -4.94452e-015 -1.22118e-013 -82.9627 26.4778 2.12776 11.9911 -5.44274 -21.5919 0.272049 14.6826 -2.11041 -1.81068e-009 -1.45696e-009 -2.5853e-009 -3.1604e-009 -2.52197e-009 -4.44454e-009 -1.81068e-009 -1.45696e-009 -2.58528e-009 -7.73091 5.47488 -0.417314 -1.81067e-009 -1.45696e-009 -2.58529e-009 -2.90554 0.965183 -0.102902 -1.81069e-009 -1.45696e-009 -2.58529e-009 -10.2786 0.731801 -0.0259123 -1.81068e-009 -1.45696e-009 -2.5853e-009 -2.22167 -0.733487 0.20892 -2.03217e-016 0 -3.88251e-019 6.85641 -25.7958 -0.983223 -0.0790465 21.2147 -0.223046 -1.22555 -1.42699 -9.86403 2.03217e-016 0 3.88251e-019 5.48621 -4.40025 -7.06972 0.465764 44.1884 -0.664265 1.43619 12.5104 -7.2355 
5.43872 84.2477 -88.4184 -5.22059 5.04545 7.80007 8.38808 5.08371 -5.00148 3.80882 -1.47194 -1.12555 -3.69444 0.47809 -1.48135 -0.00740395 -0.429653 -1.92416 -0 0 0 -0 0 0 1.93367e-013 5.96329e-014 -6.55337e-014 74.8064 -30.4201 -8.34486 -5.3164 -1.74774 9.26672 -0.389633 17.4984 2.5391 -2.18451e-009 -1.44217e-009 -1.0533e-009 -3.78635e-009 -2.49501e-009 -1.78836e-009 -2.1845e-009 -1.44217e-009 -1.05332e-009 7.73091 5.47488 0.417314 -2.18451e-009 -1.44217e-009 -1.0533e-009 2.90554 0.965183 0.102902 -2.1845e-009 -1.44217e-009 -1.0533e-009 10.2786 0.731801 0.0259123 -2.18451e-009 -1.44217e-009 -1.05329e-009 2.22167 -0.733487 -0.20892 1.93369e-013 5.96383e-014 -6.57201e-014 -82.6217 27.0469 1.73429 12.1756 -5.57235 -21.9505 0.271513 14.6631 -2.10752 -1.73055e-009 -1.03952e-009 -1.45637e-009 -3.00799e-009 -1.79458e-009 -2.49476e-009 -1.73055e-009 -1.03952e-009 -1.45636e-009 -7.73091 5.47488 -0.417314 -1.73055e-009 -1.03952e-009 -1.45637e-009 -2.90554 0.965183 -0.102902 -1.73056e-009 -1.03952e-009 -1.45637e-009 -10.2786 0.731801 -0.0259123 -1.73055e-009 -1.03952e-009 -1.45637e-009 -2.22167 -0.733487 0.20892 -2.03217e-016 0 -3.88251e-019 7.28189 -25.1614 -1.25661 -0.0764343 21.2324 -0.230849 -1.25718 -1.7215 -9.84443 2.03217e-016 0 3.88251e-019 6.09699 -5.54616 -6.74524 0.519031 46.2159 -0.728929 1.37201 11.8223 -7.59643 
5.19784 84.2578 -87.6806 -5.51577 4.82694 8.06407 8.67706 5.0994 -4.91421 3.70383 -1.53772 -1.08877 -3.64253 0.571929 -1.60247 -0.00589201 -0.476226 -2.18084 -0 0 0 -0 0 0 1.22395e-013 1.1626e-013 3.55522e-015 75.2523 -29.7617 -7.90609 -5.355 -1.76398 9.33537 -0.362616 16.8959 2.44637 -1.41405e-009 -6.54591e-010 -1.98828e-009 -2.46801e-009 -1.13766e-009 -3.41511e-009 -1.41404e-009 -6.54587e-010 -1.98829e-009 7.73091 5.47488 0.417314 -1.41405e-009 -6.5459e-010 -1.98828e-009 2.90554 0.965183 0.102902 -1.41404e-009 -6.5459e-010 -1.98828e-009 10.2786 0.731801 0.0259123 -1.41405e-009 -6.54592e-010 -1.98827e-009 2.22167 -0.733487 -0.20892 1.22511e-013 1.1627e-013 3.33624e-015 -82.2824 27.5501 1.32286 12.3794 -5.71763 -22.3477 0.268771 14.5902 -2.09657 -1.6066e-009 -6.16667e-010 -3.25954e-010 -2.77998e-009 -1.05824e-009 -5.43033e-010 -1.6066e-009 -6.16667e-010 -3.25945e-010 -7.73091 5.47488 -0.417314 -1.60659e-009 -6.16665e-010 -3.25952e-010 -2.90554 0.965183 -0.102902 -1.60661e-009 -6.16666e-010 -3.25955e-010 -10.2786 0.731801 -0.0259123 -1.60659e-009 -6.16664e-010 -3.25955e-010 -2.22167 -0.733487 0.20892 -2.03217e-016 0 -3.88251e-019 7.6588 -24.543 -1.51525 -0.073733 21.2596 -0.236579 -1.29345 -2.03186 -9.83738 2.03217e-016 0 3.88251e-019 6.65531 -6.6762 -6.37466 0.575183 48.123 -0.794894 1.27418 11.0094 -7.88072 
4.97011 84.2533 -86.9794 -5.75156 4.60064 8.24814 8.87519 5.11296 -4.77676 3.63338 -1.56686 -1.04026 -3.5982 0.619224 -1.7115 -0.024503 -0.364421 -2.40813 -0 0 0 -0 0 0 6.23809e-014 1.31988e-013 5.03919e-014 75.6664 -29.2493 -7.43568 -5.37667 -1.7731 9.37393 -0.343829 16.4502 2.3783 -7.96423e-010 -1.03557e-010 -2.32333e-009 -1.40583e-009 -1.87093e-010 -4.00317e-009 -7.9642e-010 -1.03554e-010 -2.32335e-009 7.73091 5.47488 0.417314 -7.96424e-010 -1.03557e-010 -2.32334e-009 2.90554 0.965183 0.102902 -7.96414e-010 -1.03558e-010 -2.32334e-009 10.2786 0.731801 0.0259123 -7.96425e-010 -1.0356e-010 -2.32333e-009 2.22167 -0.733487 -0.20892 6.25593e-014 1.32e-013 5.01434e-014 -81.9531 27.9817 0.890443 12.5997 -5.87813 -22.7768 0.261045 14.3939 -2.06704 -1.41703e-009 -3.43681e-010 3.66203e-010 -2.4442e-009 -5.83978e-010 6.50536e-010 -1.41704e-009 -3.43682e-010 3.66209e-010 -7.73091 5.47488 -0.417314 -1.41703e-009 -3.43681e-010 3.66203e-010 -2.90554 0.965183 -0.102902 -1.41705e-009 -3.43681e-010 3.662e-010 -10.2786 0.731801 -0.0259123 -1.41703e-009 -3.43678e-010 3.662e-010 -2.22167 -0.733487 0.20892 -2.03217e-016 0 -3.88251e-019 8.03184 -23.9093 -1.6417 -0.0708073 21.3103 -0.237645 -1.35035 -2.41254 -9.90632 2.03217e-016 0 3.88251e-019 7.16889 -7.7388 -5.96058 0.630878 49.8148 -0.857231 1.14652 10.182 -7.93693 
4.89281 84.308 -86.2325 -5.91907 4.36048 8.33778 8.9582 5.12531 -4.57218 3.61159 -1.53283 -0.976134 -3.55278 0.57928 -1.81003 -0.0879498 -0.00558027 -2.60861 -0 0 0 -0 0 0 1.09728e-014 7.72105e-014 6.44303e-014 76.0553 -28.9807 -6.9037 -5.37122 -1.77079 9.36425 -0.3365 16.2668 2.35044 -3.29354e-010 1.03408e-010 -1.66354e-009 -5.90802e-010 1.71957e-010 -2.87023e-009 -3.29349e-010 1.03411e-010 -1.66355e-009 7.73091 5.47488 0.417314 -3.29354e-010 1.03408e-010 -1.66355e-009 2.90554 0.965183 0.102902 -3.29345e-010 1.03407e-010 -1.66354e-009 10.2786 0.731801 0.0259123 -3.29356e-010 1.03406e-010 -1.66354e-009 2.22167 -0.733487 -0.20892 1.11326e-014 7.72223e-014 6.415e-014 -81.6203 28.3512 0.407081 12.8371 -6.05389 -23.2413 0.248302 14.0519 -2.01581 -1.06043e-009 -2.59088e-010 4.06395e-010 -1.82824e-009 -4.40261e-010 7.15532e-010 -1.06043e-009 -2.59088e-010 4.064e-010 -7.73091 5.47488 -0.417314 -1.06043e-009 -2.59088e-010 4.06394e-010 -2.90554 0.965183 -0.102902 -1.06044e-009 -2.59088e-010 4.06391e-010 -10.2786 0.731801 -0.0259123 -1.06043e-009 -2.59086e-010 4.06391e-010 -2.22167 -0.733487 0.20892 -2.03217e-016 0 -3.88251e-019 8.40803 -23.2478 -1.57441 -0.0676558 21.3816 -0.233226 -1.44244 -2.90595 -10.1067 2.03217e-016 0 3.88251e-019 7.64307 -8.71351 -5.48122 0.683334 51.2587 -0.912355 0.996769 9.36732 -7.69524 
